<svg xmlns="http://www.w3.org/2000/svg" version="1.1" xmlns:xlink="http://www.w3.org/1999/xlink" xmlns:svgjs="http://svgjs.dev/svgjs" width="2000" height="242" viewBox="0 0 2000 242"><g transform="matrix(1,0,0,1,-1.2121212121212466,1.1854216368331123)"><svg viewBox="0 0 396 48" data-background-color="#ffffff" preserveAspectRatio="xMidYMid meet" height="242" width="2000" xmlns="http://www.w3.org/2000/svg" xmlns:xlink="http://www.w3.org/1999/xlink"><g id="tight-bounds" transform="matrix(1,0,0,1,0.2400000000000091,-0.23512495276028744)"><svg viewBox="0 0 395.52 48.470249905520575" height="48.470249905520575" width="395.52"><g><svg viewBox="0 0 520.8572516380727 63.8301" height="48.470249905520575" width="395.52"><g><svg viewBox="0 0 520.8572516380727 63.8301" height="63.8301" width="520.8572516380727"><g><svg viewBox="0 0 520.8572516380727 63.8301" height="63.8301" width="520.8572516380727"><g><svg viewBox="0 0 520.8572516380727 63.8301" height="63.8301" width="520.8572516380727"><g><svg><g></g><g></g></svg></g><g><svg><g><svg></svg></g><g></g></svg></g><g id="text-0"><svg viewBox="0 0 520.8572516380727 63.8301" height="63.8301" width="520.8572516380727"><g transform="matrix(1,0,0,1,0,12.54005)"><svg width="97.75000000000001" viewBox="2 -37.9 97.75 37.9" height="37.9" data-palette-color="#332885"><path d="M29.7-37.9L29.7-33.55 18.3-33.55 18.3 0 13.4 0 13.4-33.55 2-33.55 2-37.9 29.7-37.9ZM61-37.9L65.85-37.9 65.85 0 61 0 61-16.85 41.9-16.85 41.9 0 37.05 0 37.05-37.9 41.9-37.9 41.9-21.25 61-21.25 61-37.9ZM81.4-4.2L99.75-4.2 99.75 0 76.55 0 76.55-37.9 99.5-37.9 99.5-33.7 81.4-33.7 81.4-21.15 97-21.15 97-16.95 81.4-16.95 81.4-4.2Z" opacity="1" transform="matrix(1,0,0,1,0,0)" fill="#332885" class="undefined-gy-0"></path></svg></g><g><svg xmlns="http://www.w3.org/2000/svg" xmlns:xlink="http://www.w3.org/1999/xlink" version="1.1" x="112.81990000000002" y="0" viewBox="9.598999999999988 28.085 80.802 43.832" enable-background="new 0 0 100 100" xml:space="preserve" height="63.8301" width="117.66745163807266" class="icon-gn-0" data-fill-palette-color="accent" id="gn-0"><g fill="#332885" data-fill-palette-color="accent"><g fill="#332885" data-fill-palette-color="accent"><g fill="#332885" data-fill-palette-color="accent"><path d="M28.674 60.124c-0.266 0-0.533-0.075-0.771-0.232-0.645-0.427-0.821-1.296-0.395-1.94l13.498-20.4c0.269-0.406 0.733-0.646 1.218-0.627 0.487 0.018 0.931 0.288 1.17 0.713l5.066 9.008 10.313-17.862c0.25-0.432 0.711-0.698 1.211-0.699 0 0 0.001 0 0.002 0 0.498 0 0.959 0.265 1.21 0.695l14.181 24.368c0.389 0.668 0.162 1.525-0.506 1.914-0.667 0.389-1.525 0.163-1.914-0.506l-12.966-22.28L49.656 50.173c-0.25 0.433-0.712 0.699-1.212 0.699-0.003 0-0.006 0-0.008 0-0.503-0.003-0.966-0.275-1.213-0.713l-5.147-9.152L29.843 59.496C29.573 59.903 29.128 60.124 28.674 60.124z" fill="#000000" data-fill-palette-color="accent"></path></g><path d="M89 60.917c-4.311 0-6.566-1.446-8.557-2.722-1.907-1.223-3.555-2.278-7.046-2.278s-5.139 1.056-7.046 2.278c-1.99 1.275-4.246 2.722-8.557 2.722s-6.565-1.446-8.556-2.722c-1.908-1.223-3.555-2.278-7.045-2.278s-5.137 1.056-7.044 2.278c-1.99 1.275-4.245 2.722-8.556 2.722-4.309 0-6.564-1.446-8.553-2.722-1.906-1.223-3.553-2.278-7.041-2.278-0.773 0-1.4-0.627-1.4-1.4s0.626-1.399 1.4-1.399c4.309 0 6.563 1.445 8.553 2.721 1.906 1.223 3.553 2.278 7.042 2.278 3.49 0 5.137-1.056 7.045-2.278 1.99-1.275 4.245-2.721 8.555-2.721 4.311 0 6.566 1.445 8.556 2.721 1.907 1.223 3.555 2.278 7.045 2.278s5.138-1.056 7.045-2.278c1.99-1.275 4.246-2.721 8.558-2.721s6.567 1.445 8.558 2.721c1.907 1.223 3.555 2.278 7.045 2.278 0.773 0 1.4 0.627 1.4 1.4S89.773 60.917 89 60.917z" fill="#000000" data-fill-palette-color="accent"></path><path d="M89 71.917c-4.311 0-6.566-1.446-8.557-2.722-1.907-1.223-3.555-2.278-7.046-2.278s-5.139 1.056-7.046 2.278c-1.99 1.275-4.246 2.722-8.557 2.722s-6.565-1.446-8.556-2.722c-1.908-1.223-3.555-2.278-7.045-2.278s-5.137 1.056-7.044 2.278c-1.99 1.275-4.245 2.722-8.556 2.722-4.309 0-6.564-1.446-8.553-2.722-1.906-1.223-3.553-2.278-7.041-2.278-0.773 0-1.4-0.627-1.4-1.4s0.626-1.4 1.4-1.4c4.309 0 6.563 1.446 8.553 2.722 1.906 1.223 3.553 2.278 7.042 2.278 3.49 0 5.137-1.056 7.045-2.278 1.99-1.275 4.245-2.722 8.555-2.722 4.311 0 6.566 1.446 8.556 2.722 1.907 1.223 3.555 2.278 7.045 2.278s5.138-1.056 7.045-2.278c1.99-1.275 4.246-2.722 8.558-2.722s6.567 1.446 8.558 2.722c1.907 1.223 3.555 2.278 7.045 2.278 0.773 0 1.4 0.627 1.4 1.4S89.773 71.917 89 71.917z" fill="#000000" data-fill-palette-color="accent"></path></g></g></svg></g><g transform="matrix(1,0,0,1,245.55725163807267,11.840049999999998)"><svg width="275.3" viewBox="5.35 -38.6 275.28 39.45" height="39.45" data-palette-color="#332885"><path d="M10.2-4.35L26.05-4.35 26.05 0 5.35 0 5.35-37.9 10.2-37.9 10.2-4.35ZM58.35 0L54.25-11.05 38.45-11.05 34.4 0 29.4 0 43.65-38.35 49.05-38.35 63.35 0 58.35 0ZM40.1-15.4L52.6-15.4 46.35-32.3 40.1-15.4ZM91.1 0L77.45-17.1 74.85-14.35 74.85 0 70 0 70-37.9 74.85-37.9 74.85-20.95 90.95-37.9 97.1-37.9 80.75-20.6 97.35 0 91.1 0ZM109.19-4.2L127.54-4.2 127.54 0 104.34 0 104.34-37.9 127.29-37.9 127.29-33.7 109.19-33.7 109.19-21.15 124.79-21.15 124.79-16.95 109.19-16.95 109.19-4.2ZM146.64 0.85Q139.39 0.85 133.69-1.85L133.69-1.85 133.69-6.45Q139.44-3.4 146.64-3.4L146.64-3.4Q150.79-3.4 152.72-5.15 154.64-6.9 154.64-9.75L154.64-9.75Q154.64-12.45 152.87-13.8 151.09-15.15 147.64-16.15L147.64-16.15 144.24-17.1Q141.34-17.95 139.29-19.05 137.24-20.15 135.87-22.23 134.49-24.3 134.49-27.65L134.49-27.65Q134.49-33 137.62-35.8 140.74-38.6 146.49-38.6L146.49-38.6Q149.84-38.6 152.39-37.98 154.94-37.35 157.69-36.1L157.69-36.1 157.69-31.6Q152.59-34.35 146.49-34.35L146.49-34.35Q142.79-34.35 141.09-32.63 139.39-30.9 139.39-27.9L139.39-27.9Q139.44-25.15 141.07-23.85 142.69-22.55 146.14-21.55L146.14-21.55 149.59-20.6Q152.64-19.75 154.77-18.63 156.89-17.5 158.22-15.38 159.54-13.25 159.54-9.85L159.54-9.85Q159.49-4.9 156.07-2.02 152.64 0.85 146.64 0.85L146.64 0.85ZM191.64-37.9Q200.99-37.9 205.76-33.08 210.54-28.25 210.54-18.9L210.54-18.9Q210.54-9.5 205.79-4.75 201.04 0 191.64 0L191.64 0 179.04 0 179.04-37.9 191.64-37.9ZM205.54-19.05Q205.54-26.55 202.04-30.1 198.54-33.65 191.64-33.65L191.64-33.65 183.89-33.65 183.89-4.25 191.64-4.25Q198.59-4.25 202.06-7.8 205.54-11.35 205.54-19.05L205.54-19.05ZM223.68-4.2L242.03-4.2 242.03 0 218.83 0 218.83-37.9 241.78-37.9 241.78-33.7 223.68-33.7 223.68-21.15 239.28-21.15 239.28-16.95 223.68-16.95 223.68-4.2ZM275.58-37.9L280.63-37.9 266.38 0.45 260.98 0.45 246.68-37.9 251.78-37.9 263.68-5.6 275.58-37.9Z" opacity="1" transform="matrix(1,0,0,1,0,0)" fill="#332885" class="undefined-gy-1"></path></svg></g></svg></g></svg></g></svg></g></svg></g></svg></g><defs></defs></svg><rect width="395.52" height="48.470249905520575" fill="none" stroke="none" visibility="hidden"></rect></g></svg></g></svg>